<svg width="44" height="42" viewBox="0 0 44 42" fill="none" xmlns="http://www.w3.org/2000/svg">
<path d="M32.2234 9H11.7719C10.7922 9 10 9.77344 10 10.7297V31.2656C10 32.2219 10.7922 33 11.7719 33H32.2234C33.2031 33 34 32.2219 34 31.2703V10.7297C34 9.77344 33.2031 9 32.2234 9ZM17.1203 29.4516H13.5578V17.9953H17.1203V29.4516ZM15.3391 16.4344C14.1953 16.4344 13.2719 15.5109 13.2719 14.3719C13.2719 13.2328 14.1953 12.3094 15.3391 12.3094C16.4781 12.3094 17.4016 13.2328 17.4016 14.3719C17.4016 15.5062 16.4781 16.4344 15.3391 16.4344ZM30.4516 29.4516H26.8937V23.8828C26.8937 22.5562 26.8703 20.8453 25.0422 20.8453C23.1906 20.8453 22.9094 22.2937 22.9094 23.7891V29.4516H19.3563V17.9953H22.7687V19.5609H22.8156C23.2891 18.6609 24.4516 17.7094 26.1813 17.7094C29.7859 17.7094 30.4516 20.0813 30.4516 23.1656V29.4516Z" fill="#E0E0E0"/>
</svg>
