<svg width="44" height="42" viewBox="0 0 44 42" fill="none" xmlns="http://www.w3.org/2000/svg">
<path d="M21.9998 9C15.3725 9 10 14.3924 10 21.0441C10 26.6923 13.8745 31.4319 19.1011 32.7336V24.7248H16.6267V21.0441H19.1011V19.4581C19.1011 15.3588 20.9495 13.4587 24.9594 13.4587C25.7197 13.4587 27.0315 13.6085 27.5681 13.7579V17.0941C27.2849 17.0642 26.7929 17.0493 26.1819 17.0493C24.2144 17.0493 23.4541 17.7975 23.4541 19.7424V21.0441H27.3737L26.7003 24.7248H23.4541V33C29.3959 32.2798 34 27.202 34 21.0441C33.9995 14.3924 28.627 9 21.9998 9Z" fill="#E0E0E0"/>
</svg>
