<svg width="16" height="16" viewBox="0 0 16 16" fill="none" xmlns="http://www.w3.org/2000/svg">
<mask id="path-1-inside-1_9242_7992" fill="white">
<path d="M7.99951 10.8333C7.55284 10.8333 7.11285 10.7133 6.71285 10.48L1.7195 7.48666C1.17284 7.15333 0.826172 6.55333 0.826172 5.91333C0.826172 5.64 1.05284 5.41333 1.32617 5.41333C1.59951 5.41333 1.82617 5.64 1.82617 5.91333C1.82617 6.20666 1.97952 6.48 2.23285 6.62666L7.2195 9.62C7.69284 9.90666 8.28617 9.90666 8.76617 9.62L13.7528 6.62666C13.9995 6.48 14.1595 6.2 14.1595 5.91333C14.1595 5.64 14.3862 5.41333 14.6595 5.41333C14.9328 5.41333 15.1595 5.64 15.1595 5.91333C15.1595 6.55333 14.8195 7.15333 14.2728 7.48666L9.27952 10.48C8.88619 10.7133 8.44618 10.8333 7.99951 10.8333Z"/>
</mask>
<path d="M7.99951 10.8333C7.55284 10.8333 7.11285 10.7133 6.71285 10.48L1.7195 7.48666C1.17284 7.15333 0.826172 6.55333 0.826172 5.91333C0.826172 5.64 1.05284 5.41333 1.32617 5.41333C1.59951 5.41333 1.82617 5.64 1.82617 5.91333C1.82617 6.20666 1.97952 6.48 2.23285 6.62666L7.2195 9.62C7.69284 9.90666 8.28617 9.90666 8.76617 9.62L13.7528 6.62666C13.9995 6.48 14.1595 6.2 14.1595 5.91333C14.1595 5.64 14.3862 5.41333 14.6595 5.41333C14.9328 5.41333 15.1595 5.64 15.1595 5.91333C15.1595 6.55333 14.8195 7.15333 14.2728 7.48666L9.27952 10.48C8.88619 10.7133 8.44618 10.8333 7.99951 10.8333Z" fill="#F5F5F5" stroke="#F5F5F5" stroke-width="2" mask="url(#path-1-inside-1_9242_7992)"/>
<path d="M11.9987 13.8334H3.9987C2.25203 13.8334 0.832031 12.4134 0.832031 10.6667V5.33341C0.832031 3.58675 2.25203 2.16675 3.9987 2.16675H11.9987C13.7454 2.16675 15.1654 3.58675 15.1654 5.33341V10.6667C15.1654 12.4134 13.7454 13.8334 11.9987 13.8334ZM3.9987 3.16675C2.80536 3.16675 1.83203 4.14008 1.83203 5.33341V10.6667C1.83203 11.8601 2.80536 12.8334 3.9987 12.8334H11.9987C13.192 12.8334 14.1654 11.8601 14.1654 10.6667V5.33341C14.1654 4.14008 13.192 3.16675 11.9987 3.16675H3.9987Z" fill="#F5F5F5"/>
</svg>
