<svg width="16" height="16" viewBox="0 0 16 16" fill="none" xmlns="http://www.w3.org/2000/svg">
<g clip-path="url(#clip0_9242_8014)">
<mask id="path-1-inside-1_9242_8014" fill="white">
<path d="M11.5209 14.8332H4.48088C3.42754 14.8332 2.57422 13.9799 2.57422 12.9265V8.70654C2.57422 8.43321 2.80089 8.20654 3.07422 8.20654H12.9276C13.2009 8.20654 13.4276 8.43321 13.4276 8.70654V12.9265C13.4276 13.9799 12.5742 14.8332 11.5209 14.8332ZM3.57422 9.20654V12.9265C3.57422 13.4265 3.98088 13.8332 4.48088 13.8332H11.5209C12.0209 13.8332 12.4276 13.4265 12.4276 12.9265V9.20654H3.57422Z"/>
</mask>
<path d="M11.5209 14.8332H4.48088C3.42754 14.8332 2.57422 13.9799 2.57422 12.9265V8.70654C2.57422 8.43321 2.80089 8.20654 3.07422 8.20654H12.9276C13.2009 8.20654 13.4276 8.43321 13.4276 8.70654V12.9265C13.4276 13.9799 12.5742 14.8332 11.5209 14.8332ZM3.57422 9.20654V12.9265C3.57422 13.4265 3.98088 13.8332 4.48088 13.8332H11.5209C12.0209 13.8332 12.4276 13.4265 12.4276 12.9265V9.20654H3.57422Z" fill="#F5F5F5" stroke="#F5F5F5" stroke-width="2" mask="url(#path-1-inside-1_9242_8014)"/>
<path d="M12.926 9.20677H3.07267C2.01934 9.20677 1.16602 8.45344 1.16602 7.53344V6.3601C1.16602 5.4401 2.01934 4.68677 3.07267 4.68677H12.926C13.9794 4.68677 14.8327 5.4401 14.8327 6.3601V7.53344C14.8327 8.45344 13.9794 9.20677 12.926 9.20677ZM3.07267 5.68677C2.57934 5.68677 2.16602 5.99343 2.16602 6.3601V7.53344C2.16602 7.9001 2.57934 8.20677 3.07267 8.20677H12.926C13.4194 8.20677 13.8327 7.9001 13.8327 7.53344V6.3601C13.8327 5.99343 13.4194 5.68677 12.926 5.68677H3.07267Z" fill="#F5F5F5"/>
<path d="M7.15272 5.68662C6.87938 5.68662 6.59939 5.64662 6.32606 5.59329C5.25272 5.38662 4.37941 4.65329 4.09941 3.72662C3.87941 2.99329 4.05941 2.27329 4.59941 1.73996C5.13275 1.21329 5.84605 1.04662 6.56605 1.26662C7.47938 1.55329 8.20605 2.43329 8.40605 3.51996C8.52605 4.17329 8.59272 4.90663 8.15272 5.34663C7.89272 5.59996 7.53272 5.68662 7.15272 5.68662ZM5.95272 2.16662C5.74606 2.16662 5.5194 2.23329 5.2994 2.44662C4.95274 2.78662 4.97941 3.16662 5.05274 3.43329C5.22607 4.01329 5.79941 4.47329 6.51274 4.61329C7.29941 4.76662 7.43271 4.64663 7.43938 4.63996C7.44604 4.6333 7.56607 4.49996 7.4194 3.70662C7.28607 2.98662 6.82607 2.39996 6.25941 2.22662C6.17274 2.18662 6.06606 2.16662 5.95272 2.16662Z" fill="#F5F5F5"/>
<path d="M8.84764 5.68661C8.46764 5.68661 8.10764 5.59995 7.84764 5.34662C7.40097 4.89995 7.46763 4.17328 7.5943 3.51995C7.7943 2.43995 8.52097 1.55328 9.43431 1.26661C10.1543 1.03994 10.8676 1.21328 11.4009 1.73995C11.9409 2.27328 12.1209 2.99328 11.9009 3.72661C11.6209 4.65328 10.7476 5.38661 9.6743 5.59328C9.40096 5.63995 9.1143 5.68661 8.84764 5.68661ZM10.0476 2.16661C9.9343 2.16661 9.82761 2.18662 9.73428 2.21995C9.16761 2.39995 8.71428 2.97995 8.57428 3.69995C8.42095 4.49328 8.54764 4.63328 8.5543 4.63328C8.56097 4.63328 8.69427 4.75995 9.48094 4.60662C10.1943 4.46662 10.7676 4.00661 10.9409 3.42661C11.0209 3.16661 11.0409 2.77995 10.6943 2.43995C10.4809 2.23328 10.2543 2.16661 10.0476 2.16661Z" fill="#F5F5F5"/>
</g>
<defs>
<clipPath id="clip0_9242_8014">
<rect width="16" height="16" fill="white"/>
</clipPath>
</defs>
</svg>
