<svg width="16" height="16" viewBox="0 0 16 16" fill="none" xmlns="http://www.w3.org/2000/svg">
<path d="M8 10.5C6.62 10.5 5.5 9.38 5.5 8C5.5 6.62 6.62 5.5 8 5.5C9.38 5.5 10.5 6.62 10.5 8C10.5 9.38 9.38 10.5 8 10.5ZM8 6.5C7.17333 6.5 6.5 7.17333 6.5 8C6.5 8.82667 7.17333 9.5 8 9.5C8.82667 9.5 9.5 8.82667 9.5 8C9.5 7.17333 8.82667 6.5 8 6.5Z" fill="#F5F5F5"/>
<mask id="path-2-inside-1_9242_7964" fill="white">
<path d="M10.1407 14.7934C10.0007 14.7934 9.86065 14.7734 9.72065 14.7401C9.30732 14.6268 8.96065 14.3668 8.74065 14.0001L8.66065 13.8668C8.26732 13.1868 7.72732 13.1868 7.33398 13.8668L7.26065 13.9934C7.04065 14.3668 6.69398 14.6334 6.28065 14.7401C5.86065 14.8534 5.42732 14.7934 5.06065 14.5734L3.91398 13.9134C3.50732 13.6801 3.21398 13.3001 3.08732 12.8401C2.96732 12.3801 3.02732 11.9068 3.26065 11.5001C3.45398 11.1601 3.50732 10.8534 3.39398 10.6601C3.28065 10.4668 2.99398 10.3534 2.60065 10.3534C1.62732 10.3534 0.833984 9.56011 0.833984 8.58678V7.41344C0.833984 6.44011 1.62732 5.64678 2.60065 5.64678C2.99398 5.64678 3.28065 5.53344 3.39398 5.34011C3.50732 5.14678 3.46065 4.84011 3.26065 4.50011C3.02732 4.09344 2.96732 3.61344 3.08732 3.16011C3.20732 2.70011 3.50065 2.32011 3.91398 2.08678L5.06732 1.42678C5.82065 0.98011 6.81398 1.24011 7.26732 2.00678L7.34732 2.14011C7.74065 2.82011 8.28065 2.82011 8.67398 2.14011L8.74732 2.01344C9.20065 1.24011 10.194 0.98011 10.954 1.43344L12.1007 2.09344C12.5073 2.32678 12.8007 2.70678 12.9273 3.16678C13.0473 3.62678 12.9873 4.10011 12.754 4.50678C12.5607 4.84678 12.5073 5.15344 12.6207 5.34678C12.734 5.54011 13.0207 5.65344 13.414 5.65344C14.3873 5.65344 15.1807 6.44678 15.1807 7.42011V8.59344C15.1807 9.56678 14.3873 10.3601 13.414 10.3601C13.0207 10.3601 12.734 10.4734 12.6207 10.6668C12.5073 10.8601 12.554 11.1668 12.754 11.5068C12.9873 11.9134 13.054 12.3934 12.9273 12.8468C12.8073 13.3068 12.514 13.6868 12.1007 13.9201L10.9473 14.5801C10.694 14.7201 10.4207 14.7934 10.1407 14.7934ZM8.00065 12.3268C8.59398 12.3268 9.14732 12.7001 9.52732 13.3601L9.60065 13.4868C9.68065 13.6268 9.81398 13.7268 9.97398 13.7668C10.134 13.8068 10.294 13.7868 10.4273 13.7068L11.5807 13.0401C11.754 12.9401 11.8873 12.7734 11.9407 12.5734C11.994 12.3734 11.9673 12.1668 11.8673 11.9934C11.4873 11.3401 11.4407 10.6668 11.734 10.1534C12.0273 9.64011 12.634 9.34678 13.394 9.34678C13.8207 9.34678 14.1607 9.00678 14.1607 8.58011V7.40678C14.1607 6.98678 13.8207 6.64011 13.394 6.64011C12.634 6.64011 12.0273 6.34678 11.734 5.83344C11.4407 5.32011 11.4873 4.64678 11.8673 3.99344C11.9673 3.82011 11.994 3.61344 11.9407 3.41344C11.8873 3.21344 11.7607 3.05344 11.5873 2.94678L10.434 2.28678C10.1473 2.11344 9.76732 2.21344 9.59398 2.50678L9.52065 2.63344C9.14065 3.29344 8.58732 3.66678 7.99398 3.66678C7.40065 3.66678 6.84732 3.29344 6.46732 2.63344L6.39398 2.50011C6.22732 2.22011 5.85398 2.12011 5.56732 2.28678L4.41398 2.95344C4.24065 3.05344 4.10732 3.22011 4.05398 3.42011C4.00065 3.62011 4.02732 3.82678 4.12732 4.00011C4.50732 4.65344 4.55398 5.32678 4.26065 5.84011C3.96732 6.35344 3.36065 6.64678 2.60065 6.64678C2.17398 6.64678 1.83398 6.98678 1.83398 7.41344V8.58678C1.83398 9.00678 2.17398 9.35344 2.60065 9.35344C3.36065 9.35344 3.96732 9.64678 4.26065 10.1601C4.55398 10.6734 4.50732 11.3468 4.12732 12.0001C4.02732 12.1734 4.00065 12.3801 4.05398 12.5801C4.10732 12.7801 4.23398 12.9401 4.40732 13.0468L5.56065 13.7068C5.70065 13.7934 5.86732 13.8134 6.02065 13.7734C6.18065 13.7334 6.31398 13.6268 6.40065 13.4868L6.47398 13.3601C6.85398 12.7068 7.40732 12.3268 8.00065 12.3268Z"/>
</mask>
<path d="M10.1407 14.7934C10.0007 14.7934 9.86065 14.7734 9.72065 14.7401C9.30732 14.6268 8.96065 14.3668 8.74065 14.0001L8.66065 13.8668C8.26732 13.1868 7.72732 13.1868 7.33398 13.8668L7.26065 13.9934C7.04065 14.3668 6.69398 14.6334 6.28065 14.7401C5.86065 14.8534 5.42732 14.7934 5.06065 14.5734L3.91398 13.9134C3.50732 13.6801 3.21398 13.3001 3.08732 12.8401C2.96732 12.3801 3.02732 11.9068 3.26065 11.5001C3.45398 11.1601 3.50732 10.8534 3.39398 10.6601C3.28065 10.4668 2.99398 10.3534 2.60065 10.3534C1.62732 10.3534 0.833984 9.56011 0.833984 8.58678V7.41344C0.833984 6.44011 1.62732 5.64678 2.60065 5.64678C2.99398 5.64678 3.28065 5.53344 3.39398 5.34011C3.50732 5.14678 3.46065 4.84011 3.26065 4.50011C3.02732 4.09344 2.96732 3.61344 3.08732 3.16011C3.20732 2.70011 3.50065 2.32011 3.91398 2.08678L5.06732 1.42678C5.82065 0.98011 6.81398 1.24011 7.26732 2.00678L7.34732 2.14011C7.74065 2.82011 8.28065 2.82011 8.67398 2.14011L8.74732 2.01344C9.20065 1.24011 10.194 0.98011 10.954 1.43344L12.1007 2.09344C12.5073 2.32678 12.8007 2.70678 12.9273 3.16678C13.0473 3.62678 12.9873 4.10011 12.754 4.50678C12.5607 4.84678 12.5073 5.15344 12.6207 5.34678C12.734 5.54011 13.0207 5.65344 13.414 5.65344C14.3873 5.65344 15.1807 6.44678 15.1807 7.42011V8.59344C15.1807 9.56678 14.3873 10.3601 13.414 10.3601C13.0207 10.3601 12.734 10.4734 12.6207 10.6668C12.5073 10.8601 12.554 11.1668 12.754 11.5068C12.9873 11.9134 13.054 12.3934 12.9273 12.8468C12.8073 13.3068 12.514 13.6868 12.1007 13.9201L10.9473 14.5801C10.694 14.7201 10.4207 14.7934 10.1407 14.7934ZM8.00065 12.3268C8.59398 12.3268 9.14732 12.7001 9.52732 13.3601L9.60065 13.4868C9.68065 13.6268 9.81398 13.7268 9.97398 13.7668C10.134 13.8068 10.294 13.7868 10.4273 13.7068L11.5807 13.0401C11.754 12.9401 11.8873 12.7734 11.9407 12.5734C11.994 12.3734 11.9673 12.1668 11.8673 11.9934C11.4873 11.3401 11.4407 10.6668 11.734 10.1534C12.0273 9.64011 12.634 9.34678 13.394 9.34678C13.8207 9.34678 14.1607 9.00678 14.1607 8.58011V7.40678C14.1607 6.98678 13.8207 6.64011 13.394 6.64011C12.634 6.64011 12.0273 6.34678 11.734 5.83344C11.4407 5.32011 11.4873 4.64678 11.8673 3.99344C11.9673 3.82011 11.994 3.61344 11.9407 3.41344C11.8873 3.21344 11.7607 3.05344 11.5873 2.94678L10.434 2.28678C10.1473 2.11344 9.76732 2.21344 9.59398 2.50678L9.52065 2.63344C9.14065 3.29344 8.58732 3.66678 7.99398 3.66678C7.40065 3.66678 6.84732 3.29344 6.46732 2.63344L6.39398 2.50011C6.22732 2.22011 5.85398 2.12011 5.56732 2.28678L4.41398 2.95344C4.24065 3.05344 4.10732 3.22011 4.05398 3.42011C4.00065 3.62011 4.02732 3.82678 4.12732 4.00011C4.50732 4.65344 4.55398 5.32678 4.26065 5.84011C3.96732 6.35344 3.36065 6.64678 2.60065 6.64678C2.17398 6.64678 1.83398 6.98678 1.83398 7.41344V8.58678C1.83398 9.00678 2.17398 9.35344 2.60065 9.35344C3.36065 9.35344 3.96732 9.64678 4.26065 10.1601C4.55398 10.6734 4.50732 11.3468 4.12732 12.0001C4.02732 12.1734 4.00065 12.3801 4.05398 12.5801C4.10732 12.7801 4.23398 12.9401 4.40732 13.0468L5.56065 13.7068C5.70065 13.7934 5.86732 13.8134 6.02065 13.7734C6.18065 13.7334 6.31398 13.6268 6.40065 13.4868L6.47398 13.3601C6.85398 12.7068 7.40732 12.3268 8.00065 12.3268Z" fill="#F5F5F5" stroke="#F5F5F5" stroke-width="2" mask="url(#path-2-inside-1_9242_7964)"/>
</svg>
