<svg width="16" height="16" viewBox="0 0 16 16" fill="none" xmlns="http://www.w3.org/2000/svg">
<mask id="path-1-inside-1_42_265" fill="white">
<path d="M11.8265 15.1667H4.17317C2.51317 15.1667 1.1665 13.8201 1.1665 12.1601V7.67342C1.1665 6.01342 2.51317 4.66675 4.17317 4.66675H11.8265C13.4865 4.66675 14.8332 6.01342 14.8332 7.67342V8.63342C14.8332 8.90676 14.6065 9.13342 14.3332 9.13342H12.9865C12.7532 9.13342 12.5398 9.22009 12.3865 9.38009L12.3798 9.38676C12.1932 9.56676 12.1065 9.8134 12.1265 10.0667C12.1665 10.5067 12.5865 10.8601 13.0665 10.8601H14.3332C14.6065 10.8601 14.8332 11.0867 14.8332 11.3601V12.1534C14.8332 13.8201 13.4865 15.1667 11.8265 15.1667ZM4.17317 5.66675C3.0665 5.66675 2.1665 6.56675 2.1665 7.67342V12.1601C2.1665 13.2667 3.0665 14.1667 4.17317 14.1667H11.8265C12.9332 14.1667 13.8332 13.2667 13.8332 12.1601V11.8667H13.0665C12.0598 11.8667 11.2065 11.1201 11.1265 10.1601C11.0732 9.61341 11.2732 9.07343 11.6732 8.68009C12.0198 8.32676 12.4865 8.13342 12.9865 8.13342H13.8332V7.67342C13.8332 6.56675 12.9332 5.66675 11.8265 5.66675H4.17317V5.66675Z"/>
</mask>
<path d="M11.8265 15.1667H4.17317C2.51317 15.1667 1.1665 13.8201 1.1665 12.1601V7.67342C1.1665 6.01342 2.51317 4.66675 4.17317 4.66675H11.8265C13.4865 4.66675 14.8332 6.01342 14.8332 7.67342V8.63342C14.8332 8.90676 14.6065 9.13342 14.3332 9.13342H12.9865C12.7532 9.13342 12.5398 9.22009 12.3865 9.38009L12.3798 9.38676C12.1932 9.56676 12.1065 9.8134 12.1265 10.0667C12.1665 10.5067 12.5865 10.8601 13.0665 10.8601H14.3332C14.6065 10.8601 14.8332 11.0867 14.8332 11.3601V12.1534C14.8332 13.8201 13.4865 15.1667 11.8265 15.1667ZM4.17317 5.66675C3.0665 5.66675 2.1665 6.56675 2.1665 7.67342V12.1601C2.1665 13.2667 3.0665 14.1667 4.17317 14.1667H11.8265C12.9332 14.1667 13.8332 13.2667 13.8332 12.1601V11.8667H13.0665C12.0598 11.8667 11.2065 11.1201 11.1265 10.1601C11.0732 9.61341 11.2732 9.07343 11.6732 8.68009C12.0198 8.32676 12.4865 8.13342 12.9865 8.13342H13.8332V7.67342C13.8332 6.56675 12.9332 5.66675 11.8265 5.66675H4.17317V5.66675Z" stroke="#F5F5F5" stroke-width="2" mask="url(#path-1-inside-1_42_265)"/>
<mask id="path-2-inside-2_42_265" fill="white">
<path d="M1.6665 8.77326C1.39317 8.77326 1.1665 8.54659 1.1665 8.27326V5.22663C1.1665 4.23329 1.79317 3.33326 2.71984 2.97992L8.01317 0.979922C8.55984 0.773255 9.1665 0.846621 9.63984 1.17995C10.1198 1.51329 10.3998 2.05328 10.3998 2.63328V5.16661C10.3998 5.43994 10.1732 5.66661 9.89984 5.66661C9.6265 5.66661 9.39984 5.43994 9.39984 5.16661V2.63328C9.39984 2.37995 9.27984 2.14661 9.0665 1.99994C8.85317 1.85327 8.59984 1.81994 8.35984 1.91327L3.0665 3.91327C2.5265 4.11994 2.15984 4.64663 2.15984 5.22663V8.27326C2.1665 8.55326 1.93984 8.77326 1.6665 8.77326Z"/>
</mask>
<path d="M1.6665 8.77326C1.39317 8.77326 1.1665 8.54659 1.1665 8.27326V5.22663C1.1665 4.23329 1.79317 3.33326 2.71984 2.97992L8.01317 0.979922C8.55984 0.773255 9.1665 0.846621 9.63984 1.17995C10.1198 1.51329 10.3998 2.05328 10.3998 2.63328V5.16661C10.3998 5.43994 10.1732 5.66661 9.89984 5.66661C9.6265 5.66661 9.39984 5.43994 9.39984 5.16661V2.63328C9.39984 2.37995 9.27984 2.14661 9.0665 1.99994C8.85317 1.85327 8.59984 1.81994 8.35984 1.91327L3.0665 3.91327C2.5265 4.11994 2.15984 4.64663 2.15984 5.22663V8.27326C2.1665 8.55326 1.93984 8.77326 1.6665 8.77326Z" stroke="#F5F5F5" stroke-width="2" mask="url(#path-2-inside-2_42_265)"/>
<path d="M13.0666 11.8666C12.06 11.8666 11.2066 11.12 11.1266 10.16C11.0733 9.60662 11.2733 9.06663 11.6733 8.6733C12.0133 8.32663 12.48 8.1333 12.98 8.1333H14.3666C15.0266 8.1533 15.5333 8.67327 15.5333 9.31327V10.6866C15.5333 11.3266 15.0266 11.8466 14.3866 11.8666H13.0666ZM14.3533 9.1333H12.9866C12.7533 9.1333 12.54 9.21996 12.3866 9.37996C12.1933 9.56663 12.1 9.81995 12.1266 10.0733C12.1666 10.5133 12.5866 10.8666 13.0666 10.8666H14.3733C14.46 10.8666 14.54 10.7866 14.54 10.6866V9.31327C14.54 9.21327 14.46 9.13997 14.3533 9.1333Z" fill="#F5F5F5"/>
<path d="M9.33317 8.5H4.6665C4.39317 8.5 4.1665 8.27333 4.1665 8C4.1665 7.72667 4.39317 7.5 4.6665 7.5H9.33317C9.6065 7.5 9.83317 7.72667 9.83317 8C9.83317 8.27333 9.6065 8.5 9.33317 8.5Z" fill="#F5F5F5"/>
</svg>
