<svg width="48" height="48" viewBox="0 0 48 48" fill="none" xmlns="http://www.w3.org/2000/svg">
<rect x="0.5" y="0.5" width="47" height="47" rx="23.5" fill="#1C1C1C"/>
<rect x="0.5" y="0.5" width="47" height="47" rx="23.5" fill="url(#paint0_linear_9397_13188)" fill-opacity="0.2"/>
<rect x="0.5" y="0.5" width="47" height="47" rx="23.5" stroke="url(#paint1_linear_9397_13188)"/>
<path d="M34 33.25C34 33.66 33.66 34 33.25 34H14.75C14.34 34 14 33.66 14 33.25C14 32.84 14.34 32.5 14.75 32.5H33.25C33.66 32.5 34 32.84 34 33.25Z" fill="#FFC107"/>
<path d="M27.3914 16.52L16.6514 27.26C16.2414 27.67 15.5814 27.67 15.1814 27.26H15.1714C13.7814 25.86 13.7814 23.6 15.1714 22.21L22.3214 15.06C23.7214 13.66 25.9814 13.66 27.3814 15.06C27.7914 15.45 27.7914 16.12 27.3914 16.52Z" fill="#FFC107"/>
<path d="M32.8214 20.4901L29.7714 17.4401C29.3614 17.0301 28.7014 17.0301 28.3014 17.4401L17.5614 28.1801C17.1514 28.5801 17.1514 29.2401 17.5614 29.6501L20.6114 32.7101C22.0114 34.1001 24.2714 34.1001 25.6714 32.7101L32.8114 25.5601C34.2314 24.1601 34.2314 21.8901 32.8214 20.4901ZM24.7614 29.5201L23.5514 30.7401C23.3014 30.9901 22.8914 30.9901 22.6314 30.7401C22.3814 30.4901 22.3814 30.0801 22.6314 29.8201L23.8514 28.6001C24.0914 28.3601 24.5114 28.3601 24.7614 28.6001C25.0114 28.8501 25.0114 29.2801 24.7614 29.5201ZM28.7314 25.5501L26.2914 28.0001C26.0414 28.2401 25.6314 28.2401 25.3714 28.0001C25.1214 27.7501 25.1214 27.3401 25.3714 27.0801L27.8214 24.6301C28.0614 24.3901 28.4814 24.3901 28.7314 24.6301C28.9814 24.8901 28.9814 25.3001 28.7314 25.5501Z" fill="#FFC107"/>
<defs>
<linearGradient id="paint0_linear_9397_13188" x1="10.6667" y1="5.02326" x2="42.0117" y2="37.6495" gradientUnits="userSpaceOnUse">
<stop stop-color="white"/>
<stop offset="0.784" stop-color="#1C1C1C" stop-opacity="0"/>
</linearGradient>
<linearGradient id="paint1_linear_9397_13188" x1="24" y1="0" x2="24" y2="48" gradientUnits="userSpaceOnUse">
<stop stop-color="white" stop-opacity="0.5"/>
<stop offset="1" stop-color="white" stop-opacity="0"/>
</linearGradient>
</defs>
</svg>
