<svg width="48" height="48" viewBox="0 0 48 48" fill="none" xmlns="http://www.w3.org/2000/svg">
<rect x="0.5" y="0.5" width="47" height="47" rx="23.5" fill="#1C1C1C"/>
<rect x="0.5" y="0.5" width="47" height="47" rx="23.5" fill="url(#paint0_linear_9397_9423)" fill-opacity="0.2"/>
<rect x="0.5" y="0.5" width="47" height="47" rx="23.5" stroke="url(#paint1_linear_9397_9423)"/>
<g clip-path="url(#clip0_9397_9423)">
<path d="M30.5 21.3701H24.75V25.7401L26.65 23.8401C26.94 23.5501 27.41 23.5501 27.71 23.8401C28 24.1301 28 24.6101 27.71 24.9001L24.53 28.0801C24.46 28.1501 24.38 28.2101 24.29 28.2401C24.2 28.2801 24.1 28.3001 24 28.3001C23.9 28.3001 23.8 28.2801 23.71 28.2401C23.62 28.2101 23.54 28.1501 23.47 28.0801L20.29 24.9001C20 24.6101 20 24.1301 20.29 23.8401C20.59 23.5501 21.06 23.5501 21.35 23.8401L23.25 25.7401V21.3701H17.5C16.54 21.3701 15.66 21.7601 15.03 22.4001C14.4 23.0301 14 23.9101 14 24.8701C14 25.9401 14.32 27.6301 14.72 28.6201L15.34 30.1701C15.83 31.3801 17.29 32.3701 18.59 32.3701H29.41C30.71 32.3701 32.17 31.3801 32.66 30.1701L33.28 28.6201C33.68 27.6301 34 25.9401 34 24.8701C34 22.9401 32.42 21.3701 30.5 21.3701Z" fill="#FFC107"/>
<path d="M24.75 16.3701C24.75 15.9601 24.41 15.6201 24 15.6201C23.59 15.6201 23.25 15.9601 23.25 16.3701V21.3701H24.75V16.3701Z" fill="#FFC107"/>
</g>
<defs>
<linearGradient id="paint0_linear_9397_9423" x1="10.6667" y1="5.02326" x2="42.0117" y2="37.6495" gradientUnits="userSpaceOnUse">
<stop stop-color="white"/>
<stop offset="0.784" stop-color="#1C1C1C" stop-opacity="0"/>
</linearGradient>
<linearGradient id="paint1_linear_9397_9423" x1="24" y1="0" x2="24" y2="48" gradientUnits="userSpaceOnUse">
<stop stop-color="white" stop-opacity="0.5"/>
<stop offset="1" stop-color="white" stop-opacity="0"/>
</linearGradient>
<clipPath id="clip0_9397_9423">
<rect width="24" height="24" fill="white" transform="translate(12 12)"/>
</clipPath>
</defs>
</svg>
