<svg width="80" height="80" viewBox="0 0 80 80" fill="none" xmlns="http://www.w3.org/2000/svg">
<circle cx="40" cy="40" r="40" fill="#FFC107"/>
<g clip-path="url(#clip0_3985_75957)">
<path d="M27.6333 50.2833H27.0833C24.55 50.2833 22.5 48.2333 22.5 45.7V41.5333C22.5 39 24.55 36.95 27.0833 36.95H27.6333C30.1666 36.95 32.2166 39 32.2166 41.5333V45.7C32.2166 48.2167 30.1666 50.2833 27.6333 50.2833ZM27.0833 39.45C25.9333 39.45 25 40.3833 25 41.5333V45.7C25 46.85 25.9333 47.7833 27.0833 47.7833H27.6333C28.7833 47.7833 29.7166 46.85 29.7166 45.7V41.5333C29.7166 40.3833 28.7833 39.45 27.6333 39.45H27.0833Z" fill="black"/>
<path d="M52.6332 39.45C51.9499 39.45 51.3832 38.8833 51.3832 38.2V36.4C51.3832 30.1167 46.2833 25.0167 40 25.0167C33.7166 25.0167 28.6167 30.1167 28.6167 36.4V38.2C28.6167 38.8833 28.05 39.45 27.3667 39.45C26.6834 39.45 26.1167 38.8833 26.1167 38.2V36.4C26.1167 28.75 32.35 22.5167 40 22.5167C47.65 22.5167 53.8832 28.75 53.8832 36.4V38.2C53.8832 38.8833 53.3332 39.45 52.6332 39.45Z" fill="black"/>
<path d="M43.5999 57.5H41.7998C41.1165 57.5 40.5498 56.9334 40.5498 56.25C40.5498 55.5667 41.1165 55 41.7998 55H43.5999C47.2833 55 50.4998 52.3833 51.2165 48.7667C51.3498 48.0833 52.0165 47.65 52.6832 47.7833C53.3499 47.9167 53.7998 48.5834 53.6665 49.25C52.7165 54.0334 48.4833 57.5 43.5999 57.5Z" fill="black"/>
<path d="M52.9165 50.2833H52.3665C49.8332 50.2833 47.7832 48.2333 47.7832 45.7V41.5333C47.7832 39 49.8332 36.95 52.3665 36.95H52.9165C55.4498 36.95 57.4998 39 57.4998 41.5333V45.7C57.4998 48.2167 55.4498 50.2833 52.9165 50.2833ZM52.3665 39.45C51.2165 39.45 50.2832 40.3833 50.2832 41.5333V45.7C50.2832 46.85 51.2165 47.7833 52.3665 47.7833H52.9165C54.0665 47.7833 54.9998 46.85 54.9998 45.7V41.5333C54.9998 40.3833 54.0665 39.45 52.9165 39.45H52.3665Z" fill="black"/>
</g>
<defs>
<clipPath id="clip0_3985_75957">
<rect width="40" height="40" fill="white" transform="translate(20 20)"/>
</clipPath>
</defs>
</svg>
