<svg width="1440" height="427" viewBox="0 0 1440 427" fill="none" xmlns="http://www.w3.org/2000/svg">
<path d="M965.957 369.251L888.672 394.977L811.733 412.058L797.566 409.172L783.788 408.284L770.379 406.475L757.295 400.419L744.516 386.355L731.953 362.473L719.564 334.57L707.37 305.661L695.372 277.9L683.612 252.847L672.091 231.485L660.83 214.18L649.873 200.767L639.176 190.488L628.74 182.09L562.39 179.736L552.735 169.162L543.058 152.554L533.359 131.63L523.704 108.186" stroke="white" stroke-opacity="0.06" stroke-linecap="round" stroke-linejoin="round"/>
<path d="M18.3569 71.5059L21.1125 72.3221L23.0653 72.9017L93.1255 93.7788L97.6819 96.2154L121.917 104.282L123.111 104.377L135.392 109.002L157.154 116.608L167.46 120.05L172.841 122.238L175.661 123.326L198.378 132.056L213.696 137.662L240.991 147.622L243.357 148.84L247.284 150.875L253.554 153.252L284.343 164.95L295.582 169.22L320.685 178.754L323.527 179.677L350.258 188.252L392.85 201.938L394.651 202.293L463.691 215.824L533.577 220.745L603.074 226.872L672.092 231.485L740.677 232.017L809.002 226.967L877.239 215.753L945.563 198.791L1014.15 177.477L1083.01 154.186L1151.99 132.41L1220.73 116.265L1289.01 106.601L1356.7 102.035L1423.86 101.112" stroke="white" stroke-opacity="0.06" stroke-linecap="round" stroke-linejoin="round"/>
<path d="M183.707 348.231L102.321 356.724" stroke="white" stroke-opacity="0.06" stroke-linecap="round" stroke-linejoin="round"/>
<path d="M34.0195 115.2L110.003 128.188L186.073 149.147L261.796 175.856L263.12 176.365L336.738 204.954L338.083 205.451L410.53 232.017L482.999 251.652L554.383 262.369L625.18 272.021L695.371 277.9L765.105 277.722L834.601 270.365L904.119 255.792L973.832 235.057L1043.89 210.359L1114.23 185.082L1184.55 163.838L1254.38 151.241L1323.5 146.048L1391.96 145.954L1459.76 148.875" stroke="white" stroke-opacity="0.06" stroke-linecap="round" stroke-linejoin="round"/>
<path d="M250.97 335.706L171.385 337.231L92.5161 348.456" stroke="white" stroke-opacity="0.06" stroke-linecap="round" stroke-linejoin="round"/>
<path d="M202.54 205.781L126.209 194.012L50.4209 192.226" stroke="white" stroke-opacity="0.06" stroke-linecap="round" stroke-linejoin="round"/>
<path d="M1435.54 211.637L1358.67 216.167L1280.34 234.762L1201.3 265.031L1122.3 300.776L1043.8 336.853L965.952 369.251L949.68 366.636L933.733 368.742L918.175 372.042L903.118 372.16L888.646 363.987L874.672 344.695L861.069 320.884L847.725 295.441L834.598 270.365L821.688 247.193L808.996 226.967L796.498 210.241L784.239 197.147L772.219 187.318L760.437 179.984L748.916 171.74L737.568 156.706L726.394 136.302L715.372 112.255" stroke="white" stroke-opacity="0.06" stroke-linecap="round" stroke-linejoin="round"/>
<path d="M41.7891 150.354L117.729 157.842L193.995 174.437L270.086 198.342L270.694 198.567L345.571 226.352L420.014 253.995L493.199 275.629L565.255 288.829L636.638 299.735L707.371 305.661L777.648 304.526L847.73 295.442L917.877 278.633L988.328 255.521L1059.15 228.717L1130.25 202.092L1201.28 180.872L1271.65 169.836L1341.23 166.595L1410.05 168.428L1478.21 172.97" stroke="white" stroke-opacity="0.06" stroke-linecap="round" stroke-linejoin="round"/>
<path d="M1008.66 117.282L1074.01 95.5646L1139.49 75.0659L1155.33 78.6381L1171.5 82.8728L1187.77 90.6913L1204.19 101.94L1220.73 116.264L1237.43 132.99L1254.38 151.241L1271.65 169.835L1289.36 187.318L1307.71 201.961L1337.57 201.76" stroke="white" stroke-opacity="0.06" stroke-linecap="round" stroke-linejoin="round"/>
<path d="M1609.06 239.67L1533.04 237.08L1456.19 237.919L1378.7 241.456L1299.84 257.283L1220.19 284.145L1140.49 316.389L1061.19 349.319L982.45 379.198L904.188 403.21L826.23 419.379L748.272 426.5L669.924 424.122L606.091 414.754L590.795 412.507L510.667 394.125L429.563 374.466L347.743 358.262L265.641 348.87L183.713 348.231L177.485 342.932L171.388 337.231L165.161 328.833L158.587 315.727L151.47 296.174L143.659 268.638L135.046 232.786L126.215 194.012L117.731 157.841L110.007 128.187L103.281 107.405L97.4447 95.7066L93.127 93.7786" stroke="white" stroke-opacity="0.06" stroke-linecap="round" stroke-linejoin="round"/>
<path d="M957.149 142.488L1023.02 121.67L1089.13 99.3496L1104.58 103.146L1120.2 109.948L1136 119.777L1151.99 132.41L1168.15 147.349L1184.56 163.838L1201.29 180.871L1218.41 197.123L1236.09 211.01L1254.53 220.212L1263.95 219.053" stroke="white" stroke-opacity="0.06" stroke-linecap="round" stroke-linejoin="round"/>
<path d="M1684 246.507L1609.06 239.67L1586.51 217.385L1511.55 212.204L1435.55 211.636L1413.98 198.602L1391.8 196.875L1374.66 198.412L1337.56 201.76L1316.54 203.652L1313.2 204.634L1300.11 208.466L1263.94 219.053L1262.75 219.408L1256.54 221.217L1253.83 222.022L1239.9 226.091L1219.62 233.543L1200.85 241.562L1182.08 250.327L1173.66 254.656L1162.7 260.026L1161.71 260.523L1133.2 274.8L1095.94 293.453L1085.74 298.563L1079.15 301.804L1058.52 311.977L1018.44 331.718L1009.39 336.178L992.664 341.536L976.478 344.552L961.008 339.407L946.232 322.741L931.89 301.58L917.874 278.633L904.118 255.792L890.557 234.489L877.235 215.753L864.087 200.175L851.155 187.968L838.44 178.907L825.986 172.449L760.439 179.984L694.74 182.823L628.738 182.089L618.475 172.118L552.732 169.161L486.73 167.564L420.662 170.225L354.008 167.729L286.465 157.995L279.327 144.759L211.827 134.172L205.491 121.942L199.025 107.109" stroke="white" stroke-opacity="0.06" stroke-linecap="round" stroke-linejoin="round"/>
<path d="M1391.81 196.875L1438.67 197.904L1465.9 198.507L1489.05 199.997L1511.55 212.204L1533.03 237.079" stroke="white" stroke-opacity="0.06" stroke-linecap="round" stroke-linejoin="round"/>
<path d="M1139.49 75.0656L1204.89 58.1037L1270.04 44.8323L1287.25 49.327L1352.71 40.3848" stroke="white" stroke-opacity="0.06" stroke-linecap="round" stroke-linejoin="round"/>
<path d="M878.6 153.607L943.518 137.26L1008.65 117.282L1023.02 121.67L1037.71 125.668L1052.61 132.375L1067.71 141.92L1083.01 154.187L1098.5 168.795L1114.23 185.082L1130.24 202.092L1146.65 218.58L1163.53 232.999L1181.08 243.03L1200.85 241.563L1219.61 233.543" stroke="white" stroke-opacity="0.06" stroke-linecap="round" stroke-linejoin="round"/>
<path d="M294.927 166.736L307.555 168.865L361.689 177.997L429.037 181.333L495.756 178.553L562.388 179.736L572.151 188.193L639.174 190.488L705.849 190.831L772.221 187.318L838.44 178.908L904.682 165.341L971.075 147.137L1037.71 125.668L1104.58 103.147L1171.49 82.873L1238.21 67.295L1304.6 56.1999L1370.58 49.0083" stroke="white" stroke-opacity="0.06" stroke-linecap="round" stroke-linejoin="round"/>
<path d="M825.991 172.449L891.495 159.816L957.15 142.488L971.08 147.136L985.227 154.387L999.59 164.501L1014.15 177.476L1028.92 192.971L1043.9 210.359L1059.15 228.717L1074.73 246.743L1090.74 262.854L1107.34 274.623L1125 274.741L1143.57 267.55L1162.71 260.027L1182.06 257.815L1225.31 239.729L1260.28 225.109" stroke="white" stroke-opacity="0.06" stroke-linecap="round" stroke-linejoin="round"/>
<path d="M279.326 144.759L346.067 151.62L412.048 152.874L477.595 150.555L543.055 152.554L608.234 155.961L673.064 158.007L737.57 156.706L801.859 150.887L866.082 140.087L930.393 124.627L994.877 105.548L1059.56 84.7184L1124.34 64.9769L1189.07 48.6536L1253.55 36.1037L1317.73 27.2087L1334.94 35.0391" stroke="white" stroke-opacity="0.06" stroke-linecap="round" stroke-linejoin="round"/>
<path d="M437.375 188.654L504.831 186.655" stroke="white" stroke-opacity="0.06" stroke-linecap="round" stroke-linejoin="round"/>
<path d="M1388.38 62.457L1321.96 67.6379L1255.07 76.7575L1187.76 90.6914L1120.2 109.948L1052.61 132.375L985.222 154.387L918.091 173.455L851.156 187.968L784.241 197.147L717.197 201.11L649.871 200.766L582.154 197.928L514.112 195.278L445.853 195.562L394.235 189.932L379.655 188.335L376.812 188.027L369.218 183.686L361.689 177.997L354.009 167.73L346.068 151.62L337.953 131.346L329.773 108.54" stroke="white" stroke-opacity="0.06" stroke-linecap="round" stroke-linejoin="round"/>
<path d="M1406.11 80.0933L1339.3 83.1451L1272 90.041L1204.19 101.94L1136 119.778L1067.72 141.92L999.589 164.501L931.742 184.586L864.09 200.175L796.504 210.241L728.808 214.653L660.832 214.18L592.464 210.501L523.684 206.231L454.6 204.126L445.856 195.562L437.373 188.654L370.74 183.793L369.222 183.687L365.36 182.918L333.877 176.625L312.202 172.379L308.622 171.598L308.47 171.539L294.93 166.736L293 166.062L290.288 165.092L259.174 154.068L246.22 149.467L246.069 149.42L240.666 147.917L213.696 137.662L213.436 137.296L200.309 132.363L198.639 131.736L175.575 123.09L172.754 122.12L157.154 116.608L135.392 109.002L121.917 104.282L108.205 99.1016L97.4432 95.7069L23.8464 75.9061L22.2408 75.4685L18.3569 71.5059" stroke="white" stroke-opacity="0.06" stroke-linecap="round" stroke-linejoin="round"/>
<path d="M618.474 172.118L683.847 173.644L748.917 171.74L813.77 165.199L878.601 153.607L891.489 159.817L904.681 165.341L918.089 173.455L931.737 184.585L945.558 198.791L959.596 215.824L973.83 235.057L988.323 255.52L1003.1 275.865L1018.24 294.353L1033.89 308.417L1050.44 310.806L1067.8 305.365L1079.45 299.546L1093.19 292.697L1129.09 274.777L1143.57 267.55L1159.6 260.382L1173.66 254.657L1189.89 248.08L1205.51 241.208L1239.9 226.091L1260.28 225.109L1292.32 216.498L1298.64 214.807L1321.46 208.668L1337.84 204.256L1413.98 198.602L1489.05 199.998L1504.11 201.393L1563.02 206.858L1586.51 217.385L1660.37 226.966L1684 246.507" stroke="white" stroke-opacity="0.06" stroke-linecap="round" stroke-linejoin="round"/>
<path d="M312.051 172.248L308.471 171.539" stroke="white" stroke-opacity="0.06" stroke-linecap="round" stroke-linejoin="round"/>
<path d="M1435.55 211.637L1456.18 237.92" stroke="white" stroke-opacity="0.06" stroke-linecap="round" stroke-linejoin="round"/>
<path d="M157.979 116.702L158.739 116.785L159.693 116.892L205.496 121.942L272.019 127.892L337.957 131.346L403.352 131.168L468.378 129.311L533.362 131.63L598.062 135.214L662.395 137.402L726.401 136.302L790.191 130.79L853.894 120.475L917.64 105.678L981.559 87.4625L1045.65 67.6734L1109.83 49.0319L1173.9 33.8916L1237.74 22.7965L1301.2 15.8059" stroke="white" stroke-opacity="0.06" stroke-linecap="round" stroke-linejoin="round"/>
<path d="M841.934 96.4282L853.889 120.475L866.082 140.087L878.602 153.607" stroke="white" stroke-opacity="0.06" stroke-linecap="round" stroke-linejoin="round"/>
<path d="M905.205 82.0327L917.638 105.678L930.396 124.627L943.523 137.26L957.148 142.488" stroke="white" stroke-opacity="0.06" stroke-linecap="round" stroke-linejoin="round"/>
<path d="M968.626 64.5503L981.557 87.4619L994.88 105.547L1008.66 117.281" stroke="white" stroke-opacity="0.06" stroke-linecap="round" stroke-linejoin="round"/>
<path d="M1032.2 45.8496L1045.65 67.673L1059.56 84.7177L1074.01 95.5644L1089.13 99.3495L1155.33 78.6379L1221.42 61.9599L1238.22 67.2945L1255.07 76.7572L1272 90.0405L1289.01 106.6L1306.15 125.62L1323.51 146.048L1341.23 166.594L1359.44 185.697L1428.69 189.139L1438.68 197.904" stroke="white" stroke-opacity="0.06" stroke-linecap="round" stroke-linejoin="round"/>
<path d="M1095.79 28.5337L1109.83 49.0323L1124.35 64.9771L1139.49 75.0666" stroke="white" stroke-opacity="0.06" stroke-linecap="round" stroke-linejoin="round"/>
<path d="M1159.3 14.729L1173.9 33.8911L1189.07 48.6529L1204.89 58.1038L1221.42 61.9599L1287.25 49.3271L1304.61 56.1995L1321.97 67.6376L1339.3 83.1446L1356.7 102.035L1374.21 123.361L1391.96 145.953L1410.06 168.427L1428.69 189.139L1497.26 195.089" stroke="white" stroke-opacity="0.06" stroke-linecap="round" stroke-linejoin="round"/>
<path d="M1222.5 5.302L1237.74 22.7963L1253.55 36.1032L1270.04 44.8326L1334.94 35.0386L1352.71 40.3851L1370.59 49.008L1388.38 62.4569L1406.11 80.093L1423.85 101.112L1441.69 124.449L1459.76 148.875L1478.21 172.97L1497.26 195.089L1504.11 201.393" stroke="white" stroke-opacity="0.06" stroke-linecap="round" stroke-linejoin="round"/>
<path d="M1285.27 0.5L1301.2 15.8059L1317.73 27.2085" stroke="white" stroke-opacity="0.06" stroke-linecap="round" stroke-linejoin="round"/>
<path d="M279.327 144.759L272.015 127.892L264.594 108.493" stroke="white" stroke-opacity="0.06" stroke-linecap="round" stroke-linejoin="round"/>
<path d="M618.482 172.118L608.241 155.961L598.064 135.214L587.954 111.652" stroke="white" stroke-opacity="0.06" stroke-linecap="round" stroke-linejoin="round"/>
<path d="M1061.19 349.319L1043.81 336.852L1026.49 333.351L1009.4 336.178L1000.24 340.128L984.076 347.072L972.294 352.146L956.477 358.959L941.636 365.347L933.739 368.741L923.823 371.994L910.544 376.347L896.181 381.043L865.154 391.215L858.623 393.356L844.194 394.172L830.178 391.18L816.596 379.966L803.36 358.19L790.385 332.061L777.649 304.525L765.108 277.722L752.784 253.202L740.677 232.017L728.809 214.653L717.201 201.109L705.853 190.83L694.744 182.823L683.852 173.644L673.069 158.006L662.394 137.401L651.827 113.591" stroke="white" stroke-opacity="0.06" stroke-linecap="round" stroke-linejoin="round"/>
<path d="M1374.67 198.413L1359.44 185.697L1289.35 187.318L1218.41 197.123L1146.65 218.58L1074.73 246.744L1003.1 275.865L931.894 301.58L861.075 320.884L790.385 332.062L719.566 334.57L648.291 329.093L576.386 317.513L503.701 302.444L429.865 279.591L354.859 252.256L278.918 226.186L202.544 205.782L193.996 174.437L186.076 149.147L179.025 131.63L172.754 122.12L167.46 120.05" stroke="white" stroke-opacity="0.06" stroke-linecap="round" stroke-linejoin="round"/>
<path d="M1260.28 225.11L1280.35 234.762L1299.83 257.283" stroke="white" stroke-opacity="0.06" stroke-linecap="round" stroke-linejoin="round"/>
<path d="M982.443 379.199L965.953 369.251" stroke="white" stroke-opacity="0.06" stroke-linecap="round" stroke-linejoin="round"/>
<path d="M1182.06 257.815L1201.31 265.031L1220.18 284.145" stroke="white" stroke-opacity="0.06" stroke-linecap="round" stroke-linejoin="round"/>
<path d="M29.5255 97.8949L8.15381 93.0808" stroke="white" stroke-opacity="0.06" stroke-linecap="round" stroke-linejoin="round"/>
<path d="M904.187 403.21L888.674 394.977L873.486 392.552L858.623 393.357L849.184 395.237L823.539 400.347L783.789 408.284L708.826 412.874L696.371 408.592L684.156 399.85L672.114 383.444L660.137 358.002L648.291 329.093L636.639 299.735L625.183 272.021L613.987 247.453L603.074 226.872L592.464 210.501L582.158 197.928L572.155 188.193L504.829 186.655L495.76 178.553L486.734 167.564L477.599 150.555L468.378 129.311L459.2 105.678" stroke="white" stroke-opacity="0.06" stroke-linecap="round" stroke-linejoin="round"/>
<path d="M1316.54 203.653L1337.85 204.256L1358.68 216.167L1378.71 241.456" stroke="white" stroke-opacity="0.06" stroke-linecap="round" stroke-linejoin="round"/>
<path d="M1104 295.69L1122.31 300.776L1140.49 316.389" stroke="white" stroke-opacity="0.06" stroke-linecap="round" stroke-linejoin="round"/>
<path d="M28.7886 95.0796L10.9102 90.4075" stroke="white" stroke-opacity="0.06" stroke-linecap="round" stroke-linejoin="round"/>
<path d="M826.226 419.379L811.732 412.057L734.751 419.355L657.379 416.587L645.228 411.785L633.382 407.503L621.818 401.329L610.427 390.671L599.057 372.692L587.666 346.433L576.383 317.513L565.253 288.829L554.383 262.369L543.816 239.457L533.575 220.744L523.681 206.231L514.113 195.278L504.826 186.655" stroke="white" stroke-opacity="0.06" stroke-linecap="round" stroke-linejoin="round"/>
<path d="M510.667 394.125L500.057 385.55L489.816 379.34L479.835 373.39L473.977 371.841L469.204 370.563L406.087 353.791L401.574 352.584L392.591 343.417L383.5 329.59L374.127 308.772L364.45 280.75L354.86 252.256L345.574 226.351L336.743 204.954L328.433 189.056L320.687 178.754L313.44 173.301" stroke="white" stroke-opacity="0.06" stroke-linecap="round" stroke-linejoin="round"/>
<path d="M590.795 412.507L579.23 404.322L568.035 398.715L557.143 393.546L551.653 392.115L487.451 375.377L479.835 373.39L470.006 365.453L460.178 353.105L450.175 333.789L439.978 307.104L429.867 279.591L420.016 253.994L410.535 232.017L401.465 214.606L392.851 201.938L384.65 193.492L358.245 185.993L317.432 174.425L313.44 173.301" stroke="white" stroke-opacity="0.06" stroke-linecap="round" stroke-linejoin="round"/>
<path d="M748.266 426.5L734.749 419.355L721.601 415.582L708.821 412.873L662.411 409.561L634.617 407.586L633.38 407.503L627.218 406.368L574.538 396.727L558.048 393.711L557.136 393.546L546.44 386.508L535.83 375.082L525.177 356.57L514.371 330.323L503.696 302.443L493.195 275.628L482.997 251.652L473.169 231.579L463.687 215.824L454.596 204.126L399.572 195.751L384.644 193.492L376.811 188.027L374.078 187.365L354.29 182.598L316.754 173.549L312.891 172.899L308.617 171.598" stroke="white" stroke-opacity="0.06" stroke-linecap="round" stroke-linejoin="round"/>
<path d="M669.922 424.122L657.381 416.587L647.552 415.05L618.174 410.437L579.228 404.322L570.267 402.192L524.421 391.334L500.055 385.55L492.634 383.74L419.927 365.986L419.276 365.856L413.483 364.732L339.17 350.372L330.882 343.701L322.746 336.143L314.544 325.592L236.391 315.679L158.585 315.727L81.5601 326.041" stroke="white" stroke-opacity="0.06" stroke-linecap="round" stroke-linejoin="round"/>
<path d="M429.56 374.467L419.927 365.986L410.64 359.386L401.571 352.584L384.929 349.119L322.745 336.143L243.767 327.591L165.158 328.833L87.3091 340.07" stroke="white" stroke-opacity="0.06" stroke-linecap="round" stroke-linejoin="round"/>
<path d="M825.991 172.449L813.776 165.198L801.864 150.886L790.191 130.79L778.691 106.636" stroke="white" stroke-opacity="0.06" stroke-linecap="round" stroke-linejoin="round"/>
<path d="M347.739 358.262L339.169 350.372L329.405 349.367L258.195 342.069L177.482 342.932L97.4409 353.211" stroke="white" stroke-opacity="0.06" stroke-linecap="round" stroke-linejoin="round"/>
<path d="M292.996 166.062L286.465 157.995L246.195 149.443L246.065 149.419" stroke="white" stroke-opacity="0.06" stroke-linecap="round" stroke-linejoin="round"/>
<path d="M437.37 188.654L429.039 181.332L420.664 170.225L412.05 152.873L403.349 131.168L394.583 106.991" stroke="white" stroke-opacity="0.06" stroke-linecap="round" stroke-linejoin="round"/>
<path d="M26.6001 87.4863L13.2563 83.6658" stroke="white" stroke-opacity="0.06" stroke-linecap="round" stroke-linejoin="round"/>
<path d="M265.639 348.871L258.197 342.069L250.972 335.706" stroke="white" stroke-opacity="0.06" stroke-linecap="round" stroke-linejoin="round"/>
<path d="M122.804 104.271L133.067 104.732L199.026 107.109L264.595 108.493L329.773 108.541L394.583 106.991L459.197 105.678L523.702 108.186L587.948 111.651L651.824 113.591L715.375 112.255L778.687 106.636L841.935 96.4283L905.204 82.0331L968.624 64.5508L1032.2 45.8501L1095.79 28.5333L1159.3 14.7295L1222.5 5.30226L1285.27 0.5" stroke="white" stroke-opacity="0.06" stroke-linecap="round" stroke-linejoin="round"/>
<path d="M15.5146 75.5627L23.1087 77.8457L26.6019 87.4857L27.4481 89.8279L103.28 107.405L141.163 119.517L179.024 131.629L218.144 146.379L254.183 159.982L257.85 161.413L303.891 179.44L328.431 189.056L330.47 189.766L401.464 214.606L473.173 231.579L543.818 239.457L613.987 247.453L683.613 252.847L752.784 253.202L821.694 247.193L890.561 234.489L959.601 215.824L1028.92 192.971L1098.51 168.794L1168.15 147.349L1237.43 132.99L1306.15 125.62L1374.21 123.361L1441.69 124.449" stroke="white" stroke-opacity="0.06" stroke-linecap="round" stroke-linejoin="round"/>
<path d="M1262.75 219.409L1254.53 220.213L1250.3 221.526L1234.81 226.34L1233.51 226.754L1181.09 243.03L1107.34 274.624L1077.52 288.345L1033.89 308.417L991.756 326.337L961.011 339.408L888.651 363.987L816.595 379.967L744.516 386.355L672.113 383.445L599.059 372.693L525.18 356.571L450.173 333.789L374.124 308.772L297.36 287.114L288.117 256.999L278.917 226.186L270.087 198.342L261.798 175.856L254.183 159.983L247.283 150.875L240.34 148.202" stroke="white" stroke-opacity="0.06" stroke-linecap="round" stroke-linejoin="round"/>
<path d="M102.327 356.724L97.4447 353.211L92.5194 348.456L87.3121 340.07L81.5623 326.041L75.0966 304.762L67.6978 274.931L59.301 235.932L50.4269 192.227L41.7915 150.354L34.0237 115.2L30.7043 102.437L30.3788 101.16L29.5325 97.895L28.7949 95.0799L27.4497 89.8281" stroke="white" stroke-opacity="0.06" stroke-linecap="round" stroke-linejoin="round"/>
<path d="M135.214 108.647L133.066 104.731" stroke="white" stroke-opacity="0.06" stroke-linecap="round" stroke-linejoin="round"/>
<path d="M1313.2 204.634L1307.71 201.961L1236.09 211.01L1163.53 232.999L1090.74 262.854L1018.25 294.353L946.234 322.741L874.676 344.695L803.358 358.191L731.953 362.473L660.135 358.002L587.667 346.433L514.374 330.323L439.974 307.104L364.446 280.75L288.116 256.999L211.481 240.12L135.042 232.786L59.2974 235.932" stroke="white" stroke-opacity="0.06" stroke-linecap="round" stroke-linejoin="round"/>
<path d="M214.04 137.52L211.827 134.173L198.635 131.736" stroke="white" stroke-opacity="0.06" stroke-linecap="round" stroke-linejoin="round"/>
<path d="M0 98.4866L3.84044 98.6749" stroke="white" stroke-opacity="0.06" stroke-linecap="round" stroke-linejoin="round"/>
<path d="M0 98.4866L2.99422 99.4801L30.7015 102.437" stroke="white" stroke-opacity="0.06" stroke-linecap="round" stroke-linejoin="round"/>
<path d="M30.3737 101.16L20.4365 99.48L5.61719 96.9724" stroke="white" stroke-opacity="0.06" stroke-linecap="round" stroke-linejoin="round"/>
<path d="M2.99268 99.4801L3.8389 98.6758L5.61795 96.9724L8.15661 93.081L10.9122 90.4078L13.2554 83.6655L15.512 75.5631L18.3542 71.5059" stroke="white" stroke-opacity="0.06" stroke-linecap="round" stroke-linejoin="round"/>
<path d="M1182.07 257.815L1146.85 274.896L1104 295.69L1085.75 298.564L1067.81 305.366L1055.12 311.481L1014.65 330.951L1000.85 337.598L992.671 341.537L981.345 346.174L922.654 370.209L918.184 372.042L908.204 375.023L857.931 390.069L846.475 393.487L844.197 394.173L770.384 406.475L696.374 408.592L621.823 401.33L616.485 400.288L546.447 386.509L541.652 385.184L477.819 367.607L470.008 365.454L465.951 364.307L392.592 343.418L314.548 325.592L306.151 309.955L228.649 298.068L151.472 296.175L75.0981 304.762" stroke="white" stroke-opacity="0.06" stroke-linecap="round" stroke-linejoin="round"/>
<path d="M1199.85 241.633L1196.47 243.136L1171.9 253.994L1161.62 258.536L1125 274.741L1089.82 291.75L1070.95 300.882L1050.44 310.806L1008.85 329.79L976.478 344.552L903.12 372.16L830.174 391.18L757.294 400.418L684.153 399.85L610.426 390.671L535.831 375.081L532.36 374.076L460.173 353.104L383.495 329.589L306.145 309.954L297.357 287.113L220.354 272.931L143.655 268.637L67.6929 274.93" stroke="white" stroke-opacity="0.06" stroke-linecap="round" stroke-linejoin="round"/>
<path d="M1103.99 295.689L1067.74 313.302L1026.49 333.351L1018.92 336.639L990.147 349.094L949.682 366.636L934.19 371.9L914.533 378.595L897.023 384.544L873.482 392.552L855.256 396.538L836.098 400.737L797.563 409.171L721.602 415.582L690.097 414.021L645.227 411.785L630.3 409.254L572.325 399.436L568.029 398.715L563.126 397.496L518.972 386.567L493.478 380.25L489.811 379.34L478.854 376.584L413.155 360.024L410.638 359.385L392.651 355.848L332.203 343.961L330.879 343.701L309.073 341.524L250.969 335.705L243.765 327.59L236.388 315.679L228.642 298.067L220.354 272.931L211.48 240.119L202.541 205.781" stroke="white" stroke-opacity="0.06" stroke-linecap="round" stroke-linejoin="round"/>
<path d="M23.1087 77.846L22.2407 75.4685" stroke="white" stroke-opacity="0.06" stroke-linecap="round" stroke-linejoin="round"/>
</svg>
