<svg width="48" height="48" viewBox="0 0 48 48" fill="none" xmlns="http://www.w3.org/2000/svg">
<rect x="0.5" y="0.5" width="47" height="47" rx="23.5" fill="#1C1C1C"/>
<rect x="0.5" y="0.5" width="47" height="47" rx="23.5" fill="url(#paint0_linear_9397_9450)" fill-opacity="0.2"/>
<rect x="0.5" y="0.5" width="47" height="47" rx="23.5" stroke="url(#paint1_linear_9397_9450)"/>
<path d="M31.7887 16.2201C28.8287 13.2701 24.0287 13.2701 21.0887 16.2201C19.0187 18.2701 18.3987 21.2201 19.1987 23.8201L14.4987 28.5201C14.1687 28.8601 13.9387 29.5301 14.0087 30.0101L14.3087 32.1901C14.4187 32.9101 15.0887 33.5901 15.8087 33.6901L17.9887 33.9901C18.4687 34.0601 19.1387 33.8401 19.4787 33.4901L20.2987 32.6701C20.4987 32.4801 20.4987 32.1601 20.2987 31.9601L18.3587 30.0201C18.0687 29.7301 18.0687 29.2501 18.3587 28.9601C18.6487 28.6701 19.1287 28.6701 19.4187 28.9601L21.3687 30.9101C21.5587 31.1001 21.8787 31.1001 22.0687 30.9101L24.1887 28.8001C26.7787 29.6101 29.7287 28.9801 31.7887 26.9301C34.7387 23.9801 34.7387 19.1701 31.7887 16.2201ZM26.4987 24.0001C25.1187 24.0001 23.9987 22.8801 23.9987 21.5001C23.9987 20.1201 25.1187 19.0001 26.4987 19.0001C27.8787 19.0001 28.9987 20.1201 28.9987 21.5001C28.9987 22.8801 27.8787 24.0001 26.4987 24.0001Z" fill="#FFC107"/>
<defs>
<linearGradient id="paint0_linear_9397_9450" x1="10.6667" y1="5.02326" x2="42.0117" y2="37.6495" gradientUnits="userSpaceOnUse">
<stop stop-color="white"/>
<stop offset="0.784" stop-color="#1C1C1C" stop-opacity="0"/>
</linearGradient>
<linearGradient id="paint1_linear_9397_9450" x1="24" y1="0" x2="24" y2="48" gradientUnits="userSpaceOnUse">
<stop stop-color="white" stop-opacity="0.5"/>
<stop offset="1" stop-color="white" stop-opacity="0"/>
</linearGradient>
</defs>
</svg>
