<svg width="48" height="48" viewBox="0 0 48 48" fill="none" xmlns="http://www.w3.org/2000/svg">
<rect x="0.5" y="0.5" width="47" height="47" rx="23.5" fill="#1C1C1C"/>
<rect x="0.5" y="0.5" width="47" height="47" rx="23.5" fill="url(#paint0_linear_9397_13179)" fill-opacity="0.2"/>
<rect x="0.5" y="0.5" width="47" height="47" rx="23.5" stroke="url(#paint1_linear_9397_13179)"/>
<g clip-path="url(#clip0_9397_13179)">
<path d="M31.6187 17.03L25.5187 14.31C24.5987 13.9 23.5487 13.9 22.6187 14.3L16.3887 17.03C15.3787 17.48 14.7387 18.52 14.8287 19.63L15.1687 24.44C15.4487 28.28 17.8287 31.61 21.3687 33.12L22.9687 33.8C23.2987 33.94 23.6487 34 23.9987 34C24.3487 34 24.6987 33.94 25.0287 33.8L26.6287 33.12C30.1687 31.61 32.5587 28.28 32.8287 24.44L33.1687 19.62C33.2487 18.52 32.6187 17.48 31.6187 17.03ZM27.4487 22.58L23.5987 26.47C23.4587 26.61 23.2587 26.69 23.0587 26.69C22.8587 26.69 22.6687 26.61 22.5287 26.47L20.5487 24.47C20.2587 24.18 20.2587 23.71 20.5587 23.41C20.8487 23.12 21.3287 23.12 21.6187 23.42L23.0587 24.88L26.3787 21.53C26.6787 21.23 27.1487 21.23 27.4387 21.52C27.7387 21.81 27.7387 22.29 27.4487 22.58Z" fill="#FFC107"/>
</g>
<defs>
<linearGradient id="paint0_linear_9397_13179" x1="10.6667" y1="5.02326" x2="42.0117" y2="37.6495" gradientUnits="userSpaceOnUse">
<stop stop-color="white"/>
<stop offset="0.784" stop-color="#1C1C1C" stop-opacity="0"/>
</linearGradient>
<linearGradient id="paint1_linear_9397_13179" x1="24" y1="0" x2="24" y2="48" gradientUnits="userSpaceOnUse">
<stop stop-color="white" stop-opacity="0.5"/>
<stop offset="1" stop-color="white" stop-opacity="0"/>
</linearGradient>
<clipPath id="clip0_9397_13179">
<rect width="24" height="24" fill="white" transform="translate(12 12)"/>
</clipPath>
</defs>
</svg>
