<svg width="48" height="48" viewBox="0 0 48 48" fill="none" xmlns="http://www.w3.org/2000/svg">
<rect x="0.5" y="0.5" width="47" height="47" rx="23.5" fill="#1C1C1C"/>
<rect x="0.5" y="0.5" width="47" height="47" rx="23.5" fill="url(#paint0_linear_9397_11518)" fill-opacity="0.2"/>
<rect x="0.5" y="0.5" width="47" height="47" rx="23.5" stroke="url(#paint1_linear_9397_11518)"/>
<path d="M32.1 21.2199C30.29 21.2199 29.55 19.9399 30.45 18.3699C30.97 17.4599 30.66 16.2999 29.75 15.7799L28.02 14.7899C27.23 14.3199 26.21 14.5999 25.74 15.3899L25.63 15.5799C24.73 17.1499 23.25 17.1499 22.34 15.5799L22.23 15.3899C21.78 14.5999 20.76 14.3199 19.97 14.7899L18.24 15.7799C17.33 16.2999 17.02 17.4699 17.54 18.3799C18.45 19.9399 17.71 21.2199 15.9 21.2199C14.86 21.2199 14 22.0699 14 23.1199V24.8799C14 25.9199 14.85 26.7799 15.9 26.7799C17.71 26.7799 18.45 28.0599 17.54 29.6299C17.02 30.5399 17.33 31.6999 18.24 32.2199L19.97 33.2099C20.76 33.6799 21.78 33.3999 22.25 32.6099L22.36 32.4199C23.26 30.8499 24.74 30.8499 25.65 32.4199L25.76 32.6099C26.23 33.3999 27.25 33.6799 28.04 33.2099L29.77 32.2199C30.68 31.6999 30.99 30.5299 30.47 29.6299C29.56 28.0599 30.3 26.7799 32.11 26.7799C33.15 26.7799 34.01 25.9299 34.01 24.8799V23.1199C34 22.0799 33.15 21.2199 32.1 21.2199ZM24 27.2499C22.21 27.2499 20.75 25.7899 20.75 23.9999C20.75 22.2099 22.21 20.7499 24 20.7499C25.79 20.7499 27.25 22.2099 27.25 23.9999C27.25 25.7899 25.79 27.2499 24 27.2499Z" fill="#FFC107"/>
<defs>
<linearGradient id="paint0_linear_9397_11518" x1="10.6667" y1="5.02326" x2="42.0117" y2="37.6495" gradientUnits="userSpaceOnUse">
<stop stop-color="white"/>
<stop offset="0.784" stop-color="#1C1C1C" stop-opacity="0"/>
</linearGradient>
<linearGradient id="paint1_linear_9397_11518" x1="24" y1="0" x2="24" y2="48" gradientUnits="userSpaceOnUse">
<stop stop-color="white" stop-opacity="0.5"/>
<stop offset="1" stop-color="white" stop-opacity="0"/>
</linearGradient>
</defs>
</svg>
